# xmcd
#
# Track frame offsets: 
#        150
#        19597
#        43364
#        62172
#        87670
#        107779
#        129182
#        150509
#
# Disc length: 2242 seconds
#
# Revision: 1
# Processed by: cddbd v1.5.2PL0 Copyright (c) Steve Scherf et al.
# Submitted via: ExactAudioCopy v1.0b1
#
DISCID=6408c008
DTITLE=Pieces Of A Dream - Imagine This
DYEAR=1983
DGENRE=Jazz+Funk
TTITLE0=Imagine This
TTITLE1=For The Fun Of It
TTITLE2=It's Time For Love
TTITLE3=The Shadow Of Your Smile
TTITLE4=It's Getting Hot In Here
TTITLE5=Fo-Fi-Fo
TTITLE6=Foreverlasting Love
TTITLE7=Tell Me A Bedtime Story
EXTD=
EXTT0=
EXTT1=
EXTT2=
EXTT3=
EXTT4=
EXTT5=
EXTT6=
EXTT7=
PLAYORDER=
